<svg xmlns="http://www.w3.org/2000/svg" xmlns:xlink="http://www.w3.org/1999/xlink" aria-hidden="true" role="img" class="component-iconify MuiBox-root css-9uy14h iconify iconify--mingcute" width="1em" height="1em" viewBox="0 0 24 24"><g fill="none"><path d="M24 0v24H0V0zM12.593 23.258l-.011.002l-.071.035l-.02.004l-.014-.004l-.071-.035c-.01-.004-.019-.001-.024.005l-.004.01l-.017.428l.005.02l.01.013l.104.074l.015.004l.012-.004l.104-.074l.012-.016l.004-.017l-.017-.427c-.002-.01-.009-.017-.017-.018m.265-.113l-.013.002l-.185.093l-.01.01l-.003.011l.018.43l.005.012l.008.007l.201.093c.012.004.023 0 .029-.008l.004-.014l-.034-.614c-.003-.012-.01-.02-.02-.022m-.715.002a.023.023 0 0 0-.027.006l-.006.014l-.034.614c0 .012.007.02.017.024l.015-.002l.201-.093l.01-.008l.004-.011l.017-.43l-.003-.012l-.01-.01z"></path><path fill="currentColor" d="M12 2a9 9 0 0 1 9 9c0 3.074-1.676 5.59-3.442 7.395a20.441 20.441 0 0 1-2.876 2.416l-.426.29l-.2.133l-.377.24l-.336.205l-.416.242a1.874 1.874 0 0 1-1.854 0l-.416-.242l-.52-.32l-.192-.125l-.41-.273a20.638 20.638 0 0 1-3.093-2.566C4.676 16.589 3 14.074 3 11a9 9 0 0 1 9-9m0 6a3 3 0 1 0 0 6a3 3 0 0 0 0-6"></path></g></svg>